<svg width="24" height="24" viewBox="0 0 24 24" fill="none" xmlns="http://www.w3.org/2000/svg">
<path d="M12 21L20.131 16.792C20.447 16.628 20.605 16.547 20.72 16.426C20.8219 16.3198 20.899 16.1924 20.946 16.053C21 15.894 21 15.717 21 15.361V7.53299M12 21L3.869 16.792C3.553 16.628 3.395 16.547 3.28 16.426C3.17838 16.3196 3.10124 16.1923 3.054 16.053C3 15.894 3 15.716 3 15.359V7.53299M12 21V11.937M21 7.53299L12 11.937M21 7.53299L16.5 5.20299M3 7.53299L11.269 3.25399C11.537 3.11599 11.67 3.04599 11.811 3.01899C11.9358 2.99481 12.0642 2.99481 12.189 3.01899C12.329 3.04599 12.463 3.11599 12.73 3.25399L16.5 5.20299M3 7.53299L7.5 9.73599M12 11.937L7.5 9.73499M16.5 5.20299L7.5 9.73499M7.5 9.73499V11.937" stroke="white" stroke-width="1.5" stroke-linecap="round" stroke-linejoin="round"/>
</svg>
